<svg xmlns="http://www.w3.org/2000/svg" fill="none" viewBox="0 0 61 32" width="61" height="32"><path fill="#15110d" d="M14.324 32c10.9 0 15.347-7.626 15.347-16.62C29.67 8.166 25.623.043 14.858.043H0v1.16h.165c.869-.002 1.659-.005 2.37.58.757.622.846 1.492.846 8.829V21.43c0 7.17-.089 8.206-.846 8.828-.756.622-1.69.622-2.535.622v1.12zM9.832 1.406h3.647c5.961 0 9.52 6.218 9.52 14.922 0 9.16-3.959 14.382-9.253 14.382-.4 0-3.96-.042-3.96-.042z"/><path fill="#15110d" d="M60.106 1.117c-2.795 0-4.791.992-4.88 5.333-.045 1.942-.089 8.888-.089 8.888v16.618h-1.996L34.327 7.772c0 1.902.045 4.547.045 8.31 0 3.637 0 7.523.045 9.466.088 4.341 2.084 5.334 4.88 5.334v1.074H27.362v-1.074c2.795 0 4.792-.993 4.88-5.334.045-1.943.089-9.467.089-9.467l.045-10.872c-1.998-2.687-2.574-3.928-5.103-4.093V.041h4.482C32.908.041 37.256 0 37.256 0l15.84 20.092v-4.754c0-3.638 0-6.946-.045-8.888-.088-4.341-2.085-5.333-4.88-5.333V.042h11.935z"/></svg>
