<svg xmlns="http://www.w3.org/2000/svg" width="428" height="48" fill="none" viewBox="0 0 428 48"><path fill="#b9c337" d="M1.1 28.91V11.7C1.1 8.66.72 5.45 0 2.28h9.83A41 41 0 0 0 8.7 11.7v17.2c0 3.01.36 6.23 1.12 9.4H0c.73-3.17 1.1-6.39 1.1-9.4m13.45-7.72c0-3.7-.3-6.9-1.4-10.1a47 47 0 0 0 7.48-1.05c.46 1.87.76 4 .76 5.98v.54c.8-4.83 4.24-6.72 8.34-6.5v7.4c-2.85-.55-5.72-.19-7.98 1.34v13.43c0 2.3.3 3.67 1 6.1H13.5a27 27 0 0 0 1.05-7.15zm19.31 9.99v-9.42c0-3.94-.27-7.32-1.4-10.67a59 59 0 0 0 8.6-1.05v21.14c0 2.28.3 4.72 1 7.14h-9.23a26 26 0 0 0 1.05-7.14zM37.23 0C40 0 41.5 1.5 41.5 3.99s-1.48 4.06-4.27 4.06-4.37-1.5-4.37-4.06S34.4 0 37.23 0M45 37.12l.7-6.68c2.36 2.5 5.12 4.06 8.2 4.06 2.28 0 3.28-.85 3.28-2.44 0-1.37-.7-2.53-2.94-3.9l-3.71-2.28c-3.72-2.28-5.43-4.77-5.43-8.03 0-4.6 3.37-7.82 10.4-7.82 2.57 0 5.26.44 7.54 1.4L61.74 18c-1.89-2.3-4.35-3.55-7.04-3.55-2.17 0-2.97.82-2.97 2 0 1.4.9 2.42 3.08 3.79l3.4 2.12c3.8 2.4 5.54 4.74 5.54 8.27 0 5.04-3.51 8.28-10.49 8.28-2.9 0-5.77-.55-8.27-1.8zm38.06-5.97V19.43c0-3.15-1.34-4.09-3.9-4.09-1.5 0-3.07.32-4.53 1.03v14.78c0 2.3.27 4.74 1 7.16H66.4c.7-2.44 1.04-4.88 1.04-7.16V8.7c0-2.76-.27-5.29-1.39-7.78C69 .8 71.71.53 74.65.1v14.84c1.46-3 4.38-4.9 8.23-4.9 5 0 7.41 3.03 7.41 8.69v12.43c0 2.28.37 4.76 1 7.16h-9.18c.61-2.42 1-4.88 1-7.16zm20.25-2.24V11.7c0-3.04-.37-6.25-1.1-9.42h9.83a41 41 0 0 0-1.11 9.42v17.2c0 3.01.36 6.23 1.11 9.4h-9.82a43 43 0 0 0 1.09-9.4m29.09 2.25V19.43c0-3.15-1.34-4.09-3.9-4.09-1.5 0-3.07.32-4.53 1.03v14.78c0 2.3.3 4.74 1 7.16h-9.23c.7-2.44 1.05-4.88 1.05-7.16V20.7a30 30 0 0 0-1.4-9.62 63 63 0 0 0 7.9-1.02c.34 1.5.6 3.14.68 4.92 1.46-3.03 4.38-4.92 8.25-4.92 5.02 0 7.41 3.03 7.41 8.64v12.45c0 2.28.37 4.76 1 7.16h-9.2a28 28 0 0 0 1.02-7.16zm10.92-5.86c0-12.09 7.6-15.26 14.21-15.26q1.94 0 3.44.32V9.1c0-2.92-.3-5.5-1.39-8.1q4.27-.21 8.62-.89v24.65c0 5 .43 9.24 1.44 12.86-2.74.2-5.02.62-8.07 1.3-.16-1.62-.28-3.28-.4-4.88-1.16 2.99-3.78 4.88-7.56 4.88-6.11 0-10.29-4.9-10.29-13.61zm13.73 8.61a8.3 8.3 0 0 0 4.08-1.09q-.13-3.07-.13-5.65V15.07a6.6 6.6 0 0 0-3.79-1.1c-4.56 0-6.57 3.27-6.43 10.22.14 6.77 2.37 9.76 6.27 9.76zm15-9.53c0-9.53 5.3-14.34 13-14.34 9.78 0 11.08 8.12 9.76 14.5h-15.23c.04 6.18 2.48 9.12 7.4 9.12 2.68 0 5.1-.8 7.2-2.18l1.15 4.3c-2.76 2.01-6.29 3.15-10.46 3.15-8.46 0-12.8-6.09-12.8-14.52zm16.26-3.94c.5-4.56-.64-6.64-3.67-6.64-2.71 0-4.76 1.71-5.04 7.03l8.71-.41zm18.09 18.06v2.69c0 1.94.45 4.4 1.34 6.82h-9.53c.68-2.42 1-4.88 1-6.82V20.84c0-3.63-.25-6.27-1.37-9.74 2.99-.2 4.9-.57 7.9-1.04.31 1.4.56 2.96.65 4.6 1.26-2.76 3.97-4.63 7.69-4.63 6.1 0 10 4.86 10 13.16 0 12.45-7.59 15.69-14.22 15.69q-1.82.01-3.45-.4zm3.73-3.54c4.97 0 6.55-3.92 6.5-10.55-.07-6.91-2.6-9.3-6.11-9.3-1.35 0-2.78.34-4.13 1.13v17.65a6.2 6.2 0 0 0 3.72 1.07zm16.97-10.58c0-9.53 5.28-14.34 13-14.34 9.77 0 11.07 8.12 9.73 14.5H234.6c.04 6.18 2.48 9.12 7.4 9.12 2.68 0 5.1-.8 7.19-2.18l1.16 4.3c-2.76 2.01-6.3 3.15-10.46 3.15-8.44 0-12.8-6.09-12.8-14.52zm16.25-3.94c.5-4.56-.64-6.64-3.67-6.64-2.71 0-4.76 1.71-5.04 7.03l8.71-.41zm26.91 10.72V19.43c0-3.15-1.35-4.09-3.9-4.09-1.5 0-3.08.32-4.54 1.03v14.78c0 2.3.3 4.74 1 7.16h-9.23c.7-2.44 1.05-4.88 1.05-7.16V20.7c0-3.1-.27-6.15-1.4-9.62 2.7-.16 5.16-.52 7.9-1.02.34 1.5.61 3.14.68 4.92 1.46-3.03 4.38-4.92 8.25-4.92 5.02 0 7.42 3.03 7.42 8.64v12.45c0 2.28.36 4.76 1 7.16h-9.21a28 28 0 0 0 1.02-7.16zm10.94-5.86c0-12.09 7.6-15.26 14.2-15.26q1.95 0 3.45.32V9.1c0-2.92-.3-5.5-1.4-8.1q4.29-.21 8.63-.89v24.65c0 5 .43 9.24 1.43 12.86-2.73.2-5.01.62-8.07 1.3-.16-1.62-.27-3.28-.39-4.88-1.16 2.99-3.78 4.88-7.57 4.88-6.1 0-10.28-4.9-10.28-13.61zm13.73 8.61c1.34 0 2.73-.34 4.08-1.09q-.14-3.07-.14-5.65V15.07a6.6 6.6 0 0 0-3.78-1.1c-4.56 0-6.57 3.27-6.43 10.22.13 6.77 2.37 9.76 6.27 9.76zm14.97-9.53c0-9.53 5.3-14.34 13-14.34 9.79 0 11.09 8.12 9.76 14.5h-15.23c.05 6.18 2.49 9.12 7.41 9.12 2.67 0 5.09-.8 7.18-2.18l1.17 4.3c-2.76 2.01-6.3 3.15-10.47 3.15-8.46 0-12.79-6.09-12.79-14.52zm16.26-3.94c.5-4.56-.63-6.64-3.67-6.64-2.71 0-4.76 1.71-5.04 7.03l8.71-.41zm26.94 10.72V19.43c0-3.15-1.35-4.09-3.9-4.09-1.51 0-3.08.32-4.54 1.03v14.78c0 2.3.3 4.74 1 7.16h-9.24a26 26 0 0 0 1.05-7.16V20.7c0-3.1-.27-6.15-1.39-9.62 2.7-.16 5.16-.52 7.9-1.02.33 1.5.6 3.14.68 4.92 1.45-3.03 4.37-4.92 8.25-4.92 5.02 0 7.41 3.03 7.41 8.64v12.45c0 2.28.37 4.76 1 7.16h-9.2a28 28 0 0 0 1.02-7.16zm13.88-.73V14.75h-3.81v-4.08l3.8-.02c0-2.03-.06-4.06-.43-6.27a22 22 0 0 1 7.64-2.3v8.4q3.8-.08 7.25-.33c.1 1.77 0 3.28-.25 4.8q-3.3-.12-6.98-.15v15.68c0 2.49 1 3.54 3.06 3.54 1.28 0 2.67-.32 4.08-.84l.78 3.32c-1.96 1.58-5.25 2.4-8 2.4-4.8 0-7.12-2.28-7.12-8.48zm49.5-28.94c-4.97 0-8.64.85-12.98.85-3.05 0-7.06-.5-9.7-1.9l-.94 2.3c2.94 1.51 6.93 2.1 10.64 2.1 4.38 0 8.3-1 12.98-1 5.17 0 8.91 2.37 8.91 6.86 0 1.83-.68 3.47-1.77 5.2L408.4 39.97a40 40 0 0 0 5.51 2.71L426 17.21c1.07-2.28 1.82-4.4 1.82-6.63 0-5.59-4.6-9.08-11.3-9.08z"/><path fill="#b9c337" d="m406.36 38.6 15.3-23.76c.9-1.41 1.38-2.6 1.38-4.01 0-2.6-1.75-4.83-6.56-4.83s-8.28 1.1-12.98 1.1c-3.76 0-7.88-.53-11.24-2.13v5.8q1.62.6 3.47.97c-1.53 10.56 2.12 20.45 10.63 26.84zm-8.51-26.52q1.16.14 2.33.16c-1.14 7.3.66 15.53 7.09 21.32L406 35.52c-6.7-5.9-9.5-14.61-8.16-23.44m16.69 10.06-1.37 2.14-3.85-13.27 1.85-.45 3.37 11.6zm-1.37-12.1q1.03-.28 1.85-.46l2.37 8.1-1.37 2.13zm-1.5 16.6-1.35 2.11-4.95-16.9q.95-.15 1.9-.36zm-2.85 4.46-.4.62c-5.7-5.36-7.2-12.8-6.08-19.52q.49-.01.94-.1l5.51 18.98zm11.85-19.72c0 .82-.36 1.68-.82 2.44l-.96 1.52-1.77-6.1q.5-.05.98-.05c1.46 0 2.6.75 2.6 2.21zm-14.44 29.25a3 3 0 0 0-3.04 2.94c0 1.6 1.37 3.08 3.04 2.97a2.9 2.9 0 0 0 2.87-2.97 2.9 2.9 0 0 0-2.87-2.94"/></svg>
