<svg xmlns="http://www.w3.org/2000/svg" viewBox="0 0 913 108"><path fill="#15110d" d="M101.83 36.02c0 19.94-13.25 31.4-36.4 31.4h-22.6v12.95c0 2.38.41 2.98 2.65 2.98h18.55v19.8H0v-19.8h10.74c2.23 0 3.63-1.64 3.63-4.02V26.34c0-3.27-.42-3.42-4.47-3.42H0V3.87h66.68c20.78 0 35.15 13.1 35.15 32.15Zm-28.18-.6c0-7.29-5.16-12.5-12.55-12.5H42.82v25h17.86c7.81 0 12.97-4.9 12.97-12.5ZM211.21 52.54c0 34.38-18.97 54.63-51.2 54.63-34.03 0-50.63-17.87-50.63-55.08C109.38 19.94 128.5 0 159.18 0c33.2 0 52.03 15.93 52.03 52.54Zm-33.06 2.38c0-20.24-.28-36.02-18.13-36.02-17.58 0-18.14 15.63-18.14 35.87 0 17.57.84 32.15 18.14 32.15 16.88 0 18.13-13.54 18.13-32ZM307.86 103.15h-92.49v-19.8h10.32c3.5 0 5.17-1.79 5.17-5.5V26.48c0-2.53-1.12-3.57-3.91-3.57h-11.58V3.87h61.94v19.05h-15.2c-1.82 0-2.8 1.2-2.8 3.13v52.1c0 4.6 1.68 5.65 8.93 5.65 12 0 17.44-2.53 18-16.97l.27-7h21.35v43.32ZM374.63 22.92h-12c-2.36 0-3.06.6-3.06 2.38V78.6c0 3.12 1.4 4.76 4.18 4.76h10.74v19.8h-58.3v-19.8h9.76c3.2 0 5.16-1.93 5.16-4.91V25.3c0-1.93-.7-2.38-3.49-2.38h-11.44V3.87h58.45v19.05ZM484.19 48.82H462v-20.4c0-3.71-2.1-5.5-6.28-5.5h-7.67v55.22c0 3.87 1.25 5.21 4.6 5.21h11.16v19.8h-59.84v-19.8h11.16c3.34 0 4.46-1.34 4.46-5.2V22.91h-7.53c-4.33 0-6.28 1.79-6.28 5.5v20.4h-22.18V3.87h100.58v44.95ZM551.59 22.92h-12c-2.37 0-3.07.6-3.07 2.38V78.6c0 3.12 1.4 4.76 4.19 4.76h10.74v19.8h-58.3v-19.8h9.76c3.2 0 5.16-1.93 5.16-4.91V25.3c0-1.93-.7-2.38-3.49-2.38h-11.44V3.87h58.45v19.05ZM560.7 3.87h53.57v19.05h-6.97c-2.65 0-3.21.6-3.21 4.02v20.84l24.69-22.03c.56-.6.98-1.2.98-1.79 0-.74-.84-1.04-2.1-1.04h-5.02V3.87h49.1v19.05H660.3c-3.34 0-6.55 1.34-9.76 4.17l-14.79 12.8 31.4 41.08c1.52 1.93 2.5 2.38 5.57 2.38h5.72v19.8h-55.1v-19.8h5.3c1.4 0 2.23-.74 2.23-1.93 0-.75-.42-1.64-.97-2.39L614.13 58.2l-10.04 8.78v13.54c0 2.23.7 2.83 3.07 2.83h7.25v19.8h-53.84v-19.8h10.46c3.2 0 4.74-1.34 4.74-4.02V27.1c0-2.08-1.53-4.17-3.35-4.17h-11.71V3.87ZM786.46 103.15h-98.9v-19.8h8.65c2.37 0 4.18-1.64 4.18-3.72V26.49c0-2.23-1.4-3.57-3.9-3.57H686.3V3.87h97.1v37.8h-19.54l-.84-13.1c-.13-2.82-1.67-5.65-6.97-5.65h-27.34v20.54h7.53c2.1 0 3.63-1.78 3.9-4.91l.57-5.06h13.39v35.57h-13.25l-.7-6.84c-.14-1.94-1.54-3.13-3.9-3.13h-7.54v18.6c0 4.02 1.4 5.66 4.88 5.66h19.53c6.7 0 10.46-3.72 10.74-10.87l.56-11.9h22.04v42.57ZM913 22.92h-11.86c-2.37 0-2.93.6-2.93 3.13v77.1H875.2L831.8 46.29v32.3c0 2.68 1.68 4.76 3.77 4.76h10.32v19.8h-49.94v-19.8h9.35c3.2 0 4.6-1.49 4.6-4.61V25.9c0-1.79-1.25-2.98-3.06-2.98h-10.89V3.87h40.88l39.33 52.84V25.45c0-1.78-.7-2.53-2.93-2.53h-9.2V3.87H913v19.05Z"/></svg>
